<svg width="0" height="0" class="hidden">
  <symbol xmlns="http://www.w3.org/2000/svg" viewBox="0 0 24 24" id="email">
    <title>email</title>
    <path d="M12 .02c-6.627 0-12 5.373-12 12s5.373 12 12 12 12-5.373 12-12-5.373-12-12-12zm6.99 6.98l-6.99 5.666-6.991-5.666h13.981zm.01 10h-14v-8.505l7 5.673 7-5.672v8.504z"/>  
  </symbol>
  <symbol xmlns="http://www.w3.org/2000/svg" viewBox="0 0 24 24" id="phone">
    <title>phone</title>
    <path d="M12 0c-6.627 0-12 5.373-12 12s5.373 12 12 12 12-5.373 12-12-5.373-12-12-12zm3.445 17.827c-3.684 1.684-9.401-9.43-5.8-11.308l1.053-.519 1.746 3.409-1.042.513c-1.095.587 1.185 5.04 2.305 4.497l1.032-.505 1.76 3.397-1.054.516z"/>
  </symbol>
  <symbol xmlns="http://www.w3.org/2000/svg" viewBox="0 0 24 24" id="linkedin">
    <title>linkedin</title>
    <path d="M19 0h-14c-2.761 0-5 2.239-5 5v14c0 2.761 2.239 5 5 5h14c2.762 0 5-2.239 5-5v-14c0-2.761-2.238-5-5-5zm-11 19h-3v-11h3v11zm-1.5-12.268c-.966 0-1.75-.79-1.75-1.764s.784-1.764 1.75-1.764 1.75.79 1.75 1.764-.783 1.764-1.75 1.764zm13.5 12.268h-3v-5.604c0-3.368-4-3.113-4 0v5.604h-3v-11h3v1.765c1.396-2.586 7-2.777 7 2.476v6.759z"/>
  </symbol>
  

</svg>